<svg width="42" height="42" viewBox="0 0 42 42" fill="none" xmlns="http://www.w3.org/2000/svg">
<path d="M29.75 32.252H22.75L14.9625 37.432C13.8075 38.202 12.25 37.3795 12.25 35.9795V32.252C7 32.252 3.5 28.752 3.5 23.502V13.002C3.5 7.75195 7 4.25195 12.25 4.25195H29.75C35 4.25195 38.5 7.75195 38.5 13.002V23.502C38.5 28.752 35 32.252 29.75 32.252Z" stroke="#5EAF21" stroke-width="1.56" stroke-miterlimit="10" stroke-linecap="round" stroke-linejoin="round"/>
<path d="M20.9997 19.879V19.5115C20.9997 18.3215 21.7347 17.6915 22.4697 17.184C23.1872 16.694 23.9047 16.064 23.9047 14.909C23.9047 13.299 22.6097 12.0039 20.9997 12.0039C19.3897 12.0039 18.0947 13.299 18.0947 14.909" stroke="#292D32" stroke-width="1.56" stroke-linecap="round" stroke-linejoin="round"/>
<path d="M20.9922 24.0625H21.0079" stroke="#292D32" stroke-width="2.5625" stroke-linecap="round" stroke-linejoin="round"/>
</svg>
