<svg width="406" height="305" viewBox="0 0 406 305" fill="none" xmlns="http://www.w3.org/2000/svg">
<path fill-rule="evenodd" clip-rule="evenodd" d="M168.763 65.1486C167.705 71.1508 167.468 71.7068 166.431 76.572C165.3 76.6181 164.831 75.649 163.544 76.0003C163.498 74.8702 162.733 74.9534 161.935 75.0912C161.884 73.6427 164.227 73.5628 163.795 71.8983C160.035 70.3079 158.362 76.6949 151.44 76.6192C151.534 72.7772 148.776 73.85 148.461 70.6907C155.285 68.7707 163.151 58.1563 168.763 65.1486Z" fill="#57AB17" fill-opacity="0.5"/>
<path fill-rule="evenodd" clip-rule="evenodd" d="M174.421 60.8815C174.484 62.3269 172.134 62.42 172.565 64.0851C171.342 64.4189 171.165 62.8102 170.625 61.918C171.863 59.923 172.493 60.8479 174.421 60.8815Z" fill="#57AB17" fill-opacity="0.5"/>
<path fill-rule="evenodd" clip-rule="evenodd" d="M137.679 70.9773C140.508 70.9592 140.901 72.189 139.973 74.3962L137.441 75.0875C136.516 73.1231 138.024 72.5743 137.679 70.9773Z" fill="#57AB17" fill-opacity="0.5"/>
<path fill-rule="evenodd" clip-rule="evenodd" d="M257.279 39.668L261.085 38.6289C262 40.5504 260.466 41.0835 260.846 42.728L258.304 43.4219L257.279 39.668Z" fill="#57AB17" fill-opacity="0.5"/>
<path fill-rule="evenodd" clip-rule="evenodd" d="M182.499 65.4552C185.014 72.9046 177.026 74.4111 170.596 76.8063C174.011 72.6174 174.268 63.7257 182.499 65.4552Z" fill="#57AB17" fill-opacity="0.5"/>
<path fill-rule="evenodd" clip-rule="evenodd" d="M102.558 87.2515C105.756 84.4016 107.791 91.8563 103.586 91.0162L102.558 87.2515Z" fill="#57AB17" fill-opacity="0.5"/>
<path fill-rule="evenodd" clip-rule="evenodd" d="M267.483 42.18C273.463 42.3646 276.038 40.0388 280.524 39.9798C282.536 46.5495 287.094 47.0077 290.538 46.6846C289.847 52.7809 273.731 45.3993 270.806 49.3746C267.963 49.9676 268.82 44.1916 267.483 42.18Z" fill="#57AB17" fill-opacity="0.5"/>
<path fill-rule="evenodd" clip-rule="evenodd" d="M210.746 59.0781C223.528 62.159 245.11 51.0112 241.953 73.4809C236.655 71.4419 230.919 76.6756 224.428 74.2084C223.003 68.61 215.382 64.5084 210.746 59.0781Z" fill="#57AB17" fill-opacity="0.5"/>
<path fill-rule="evenodd" clip-rule="evenodd" d="M108.066 92.4556C110.749 98.0992 97.2193 100.65 96.6448 95.5734C98.241 94.3123 100.075 93.3863 102.038 92.8506C104 92.3148 106.05 92.1804 108.066 92.4556Z" fill="#57AB17" fill-opacity="0.5"/>
<path fill-rule="evenodd" clip-rule="evenodd" d="M130.931 86.2888C130.528 92.0094 114.825 97.2787 110.62 91.8335C114.747 89.5414 123.739 85.6469 130.931 86.2888Z" fill="#57AB17" fill-opacity="0.5"/>
<path fill-rule="evenodd" clip-rule="evenodd" d="M246.832 61.3781C258.492 55.9098 261.684 65.0483 275.185 60.3799C275.359 63.1549 276.962 63.4599 277.82 65.0541C284.225 63.3971 287.747 60.0588 295.25 58.959C297.763 60.2036 300.054 61.8517 302.034 63.8374C312.601 59.7299 320.475 60.2317 323.799 68.6826C326.047 68.5489 325.934 67.0484 325.652 65.4685C333.572 64.7235 338.781 68.649 345.82 69.4016C351.413 64.3554 358.734 66.482 360.561 73.4675C355.422 72.2651 355.043 75.6023 350.748 77.4946C343.202 71.0304 337.362 75.047 329.42 79.2718C327.264 75.5639 330.362 74.8554 330.251 72.3149C320.997 74.7494 313.542 74.0993 309.741 67.1269C303.932 71.9691 296.247 71.062 291.398 74.8194C289.572 74.9065 289.464 71.9194 288.767 70.156C288.335 72.3878 285.243 73.1174 286.326 76.2041C275.742 75.8596 269.092 77.8693 262.354 73.3212C254.787 81.3059 242.979 67.5607 246.832 61.3781Z" fill="#57AB17" fill-opacity="0.5"/>
<path fill-rule="evenodd" clip-rule="evenodd" d="M51.1465 133.648L56.2296 132.261L56.9177 134.781L51.8345 136.169L51.1465 133.648Z" fill="#57AB17" fill-opacity="0.5"/>
<path fill-rule="evenodd" clip-rule="evenodd" d="M97.6118 129.041C99.9453 127.879 101.035 134.255 97.374 133.151L96.6918 130.652C97.848 130.577 97.755 129.859 97.6118 129.041Z" fill="#57AB17" fill-opacity="0.5"/>
<path fill-rule="evenodd" clip-rule="evenodd" d="M366.915 71.7383C370.212 71.5921 372.356 73.418 374.663 75.0048C375.304 79.5722 373.434 81.0538 369.312 80.5221L366.915 71.7383Z" fill="#57AB17" fill-opacity="0.5"/>
<path fill-rule="evenodd" clip-rule="evenodd" d="M235.972 111.447C238.719 108.949 242.243 113.7 242.352 109.705C256.242 115.421 274.421 103.236 284.877 115.625C285.538 114.599 286.556 113.854 287.734 113.532C288.91 113.211 290.166 113.336 291.257 113.884C287.818 120.958 274.079 117.43 264.961 122.41C261.262 121.42 258.702 118.406 256.186 115.379C251.523 118.514 251.433 113.751 247.887 114.948C244.702 116.137 250.221 116.596 249.254 119.956C245.217 120.784 240.17 123.35 237.504 121.827C237.505 117.565 239.771 115.278 235.972 111.447Z" fill="#57AB17" fill-opacity="0.5"/>
<path fill-rule="evenodd" clip-rule="evenodd" d="M22.9278 175.081C27.3057 167.51 24.2705 182.176 21.9942 176.684C21.3935 175.237 22.4842 175.842 22.9278 175.081Z" fill="#57AB17" fill-opacity="0.5"/>
<path fill-rule="evenodd" clip-rule="evenodd" d="M337.58 89.1387C340.339 90.6708 342.072 85.9242 343.689 91.516C342.154 91.7065 341.499 92.4108 341.49 93.4646C339.563 93.0994 338.396 91.4183 337.58 89.1387Z" fill="#57AB17" fill-opacity="0.5"/>
<path fill-rule="evenodd" clip-rule="evenodd" d="M94.1688 166.373C95.855 170.164 93.0795 171.424 95.2877 175.495C91.2725 183.138 72.9483 182.736 67.8201 189.735C51.0485 192.131 38.7161 209.324 20.3914 210.761C21.0134 203.998 11.8469 203.529 17.3113 199.478C23.8283 197.859 17.9773 206.941 22.2401 207.571C26.1071 206.207 22.66 200.737 22.0414 196.839C28.4668 193.21 28.8203 187.515 36.2418 188.917C37.125 187.587 37.6467 186.051 37.7558 184.459C50.6289 180.716 53.9157 179.11 63.3138 173.436C74.8102 177.668 80.2728 162.225 94.1688 166.373Z" fill="#57AB17" fill-opacity="0.5"/>
<path fill-rule="evenodd" clip-rule="evenodd" d="M292.784 114.853C294.923 115.412 297.313 115.628 297.957 118.823C295.803 118.257 293.416 118.051 292.784 114.853Z" fill="#57AB17" fill-opacity="0.5"/>
<path fill-rule="evenodd" clip-rule="evenodd" d="M386.424 93.314L390.2 92.2832L390.885 94.793L387.079 95.832L386.424 93.314Z" fill="#57AB17" fill-opacity="0.5"/>
<path fill-rule="evenodd" clip-rule="evenodd" d="M399.566 96.4364C402.865 97.5123 406.417 98.1313 407.047 103.832C406.29 104.708 405.365 105.423 404.328 105.935C403.29 106.448 402.161 106.748 401.005 106.819C400.558 101.159 395.645 99.6092 399.566 96.4364Z" fill="#57AB17" fill-opacity="0.5"/>
<path fill-rule="evenodd" clip-rule="evenodd" d="M13.6124 205.894C16.942 205.534 15.0241 210.731 12.1092 210.35C10.6467 207.755 14.0461 207.901 13.6124 205.894Z" fill="#57AB17" fill-opacity="0.5"/>
<path fill-rule="evenodd" clip-rule="evenodd" d="M397.004 111.988C397.727 115.219 393.433 115.648 390.076 116.576C388.375 111.852 394.261 108.212 397.004 111.988Z" fill="#57AB17" fill-opacity="0.5"/>
<path fill-rule="evenodd" clip-rule="evenodd" d="M3.67303 219.423C3.52183 221.464 2.67233 223.125 2.51224 225.134C1.19358 224.593 -0.269687 224.517 -1.63731 224.918L-2.66496 221.154C0.447949 220.167 0.61746 217.732 3.67303 219.423Z" fill="#57AB17" fill-opacity="0.5"/>
<path fill-rule="evenodd" clip-rule="evenodd" d="M292.796 149.866C294.753 148.955 295.311 150.46 296.945 150.082C297.009 151.527 294.658 151.621 295.099 153.283C293.556 153.487 293.404 151.3 292.796 149.866Z" fill="#57AB17" fill-opacity="0.5"/>
<path fill-rule="evenodd" clip-rule="evenodd" d="M269.436 179.212C266.668 183.098 259.758 182.277 255.483 183.021C255.223 177.675 268.016 171.669 269.436 179.212Z" fill="#57AB17" fill-opacity="0.5"/>
<path fill-rule="evenodd" clip-rule="evenodd" d="M314.312 208.689C312.843 215.364 318.942 214.933 317.395 219.983C297.96 226.523 284.515 213.475 268.399 225.267C264.582 226.938 263.956 223.054 261.957 221.633C254.074 225.99 248.254 230.368 238.534 230.723C236.543 230.8 227.226 228.898 225.848 234.187C218.629 230.891 211.208 238.446 204.52 235.964C200.173 237.413 200.913 241.715 196.999 243.41C178.329 241.995 168.883 257.199 154.22 256.437C153.842 251.536 150.571 251.651 150.204 246.748C166.603 241.687 177.942 228.686 199.926 229.139C204.912 222.922 216.054 224.977 226.23 220.6C230.536 219.926 233.411 221.793 236.479 223.196C262.26 209.598 287.933 208.337 314.312 208.689ZM211.794 232.641C205.46 229.618 209.893 237.481 211.794 232.641V232.641ZM231.158 228.692C229.682 225.668 237.803 230.135 237.199 225.706C235.279 223.317 226.683 227.869 231.158 228.692Z" fill="#57AB17" fill-opacity="0.5"/>
<path fill-rule="evenodd" clip-rule="evenodd" d="M409.045 211.128L411.797 221.209C398.979 229.758 389.604 219.862 381.384 214.656C377.674 221.028 374.017 220.359 365.22 220.405C364.459 218.203 366.063 217.341 365.129 215.049C350.678 214.56 340.758 222.844 323.156 221.113C322.15 219.603 321.494 217.886 321.238 216.088C320.983 214.291 321.134 212.46 321.682 210.728C333.902 203.588 351.189 213.507 369.754 207.044C381.655 210.457 397.048 207.866 409.045 211.128Z" fill="#57AB17" fill-opacity="0.5"/>
<path fill-rule="evenodd" clip-rule="evenodd" d="M124.957 294.124L125.645 296.645C124.518 296.7 124.588 297.459 124.722 298.245C122.391 299.417 121.302 293.041 124.957 294.124Z" fill="#57AB17" fill-opacity="0.5"/>
<path fill-rule="evenodd" clip-rule="evenodd" d="M498.721 349.79C485.806 353.008 478.037 347.358 469.573 342.892C454.876 340.619 439.955 338.705 427.289 332.873C418.169 336.505 410.822 330.855 404.699 335.007C402.751 331.596 397.196 334.437 396.263 329.219C389.019 332.236 389.732 331.081 383.231 331.416C375.879 323.825 362.402 326.819 354.331 320.44C350.2 320.586 350.053 322.979 347.059 323.774C341.773 317.219 331.903 326.86 324.705 321.798C321.659 326.331 318.187 324.331 313.967 327.414C306.352 324.637 294.894 328.371 288.397 323.619C289.714 321.535 287.557 317.484 288.872 315.399C301.644 314.256 316.006 310.357 325.521 314.821C330.29 307.178 340.098 313.802 346.758 307.687C348.423 307.358 350.152 307.633 351.634 308.46C353.117 309.289 354.257 310.618 354.849 312.209C362.804 309.535 366.395 314.405 373.978 312.38C387.128 321.668 406.508 320.16 422.351 324.782C440.216 320.991 450.06 331.056 467.059 328.746C468.519 331.16 470.838 332.079 472.583 333.992C484.7 331.495 490.561 339.825 500.465 341.235C502.468 345.522 497.609 345.969 498.721 349.79Z" fill="#57AB17" fill-opacity="0.5"/>
<path fill-rule="evenodd" clip-rule="evenodd" d="M608.843 323.767C609.911 328.687 611.366 333.008 613.532 335.96C605.751 335.798 598.822 334.32 590.242 335.576C584.858 328.83 575.2 328.026 565.501 324.813C560.728 323.236 550.672 324.107 543.145 322.826C532.828 321.072 529.015 316.399 515.719 322.235C519.815 329.914 527.694 331.065 537.826 328.333C545.979 332.702 555.549 334.648 566.623 333.944C579.951 342.876 594.787 349.213 614.076 347.958C620.722 356.189 633.145 354.397 639.851 362.472L646.231 360.73C650.288 364.788 655.084 367.582 656.104 376.924C645.13 380.468 641.384 371.561 634.57 367.948C627.066 369.756 623.219 365.334 619.143 361.372C615.014 363.573 613.75 360.833 609.909 362.545C604.61 356.313 593.954 359.348 589.316 351.986C564.29 351.516 543.246 344.211 522.394 336.557L521.024 331.537C507.497 335.23 503.617 322.189 490.601 324.988C488.615 323.53 488.253 322.202 489.23 319.968C486.231 320.787 486.069 323.118 481.959 323.302C473.816 316.452 460.181 319.078 451.791 312.662C441.354 314.116 426.73 313.366 416.649 308.793C407.129 313.519 404.597 306.211 395.317 310.561C392.673 307.739 388.702 307.259 386.539 303.519C384.51 308.644 379.766 306.716 376.052 305.033C379.774 295.561 387.458 304.958 394.394 297.34C414.719 301.596 437.809 301.086 456.146 308.776L465.026 306.352C483.828 315.708 507.252 317.084 531.856 316.423C559.141 309.008 583.764 321.346 608.843 323.767Z" fill="#57AB17" fill-opacity="0.5"/>
<path fill-rule="evenodd" clip-rule="evenodd" d="M229.66 368.01C232.494 364.951 231.86 360.038 234.87 357.126C244.062 354.216 256.063 347.192 267.837 348.126C273.091 344.727 280.336 342.428 285.847 339.177C299.991 345.278 319.043 332.274 332.062 338.695C339.724 330.89 348.076 337.751 355.01 337.824C358.255 337.864 362.082 334.933 363.89 335.4C368.299 336.482 371.958 341.597 374.244 343.36C399.591 338.931 414.943 351.766 439.677 348.352C446.371 354.043 458.813 349.767 464.099 357.865C478.749 355.945 489.984 364.785 503.83 368.582C518.588 372.666 533.224 369.812 543.938 380.6C557.135 378.712 563.692 388.291 575.961 388.027C584.578 396.53 600.778 391.914 609.353 400.473C613.275 398.637 615.491 399.724 618.579 399.315C623.744 405.173 632.178 405.349 636.982 411.809C651.809 413.885 664.695 419.314 675.563 428.232C684.304 429.113 692.536 430.889 696.499 440.044C680.988 442.748 661.914 435.876 650.303 425.699C642.45 426.232 636.801 423.159 631.984 418.577C603.556 416.613 584.517 398.397 556.324 396.084C552.921 390.9 546.82 390.36 542.754 386.305C540.308 390.32 536.201 386.792 531.332 389.423C527.908 385.778 523.858 382.777 519.373 380.564C516.511 381.756 514.801 384.452 511.758 382.643C502.677 379.259 491.814 378.946 485.396 370.962C466.416 370.545 449.943 365.785 434.472 359.256C421.244 361.828 412.404 356.779 400.019 357.874C397.103 356.774 396.062 352.419 393.818 350.14C382.184 352.94 365.525 344.151 353.597 347.636C349.456 348.036 347.106 345.33 343.349 345.042C328.244 351.575 316.135 343.135 300.455 352.716C275.787 348.493 256.421 367.343 229.66 368.01Z" fill="#57AB17" fill-opacity="0.5"/>
<path fill-rule="evenodd" clip-rule="evenodd" d="M707.936 471.963C697.557 474.339 685.113 464.79 672.117 465.572C661.128 456.255 644.531 456.613 635.06 444.688C630.511 445.141 628.014 442.109 622.612 444.041C615.872 440.281 610.165 434.777 600.162 436.685C592.624 431.888 585.348 426.584 574.485 427.514C565.253 418.814 550.95 418.949 541.332 410.969C537.491 412.681 536.227 409.929 532.1 412.141C529.177 409.808 525.894 408.122 524.286 403.487L514.141 406.256C494.307 395.593 467.022 397.82 445.611 389.92C438.534 393.542 435.784 389.665 431.544 388.366C425.496 390.199 420.407 390.39 417.49 386.82C407.766 388.241 399.04 387.926 395.029 379.469C406.125 371.766 415.15 379.255 427.776 374.563C430.982 376.429 433.871 378.806 437.448 380.023C446.148 376.061 448.903 382.382 457.508 378.582C470.314 385.974 489.509 382.414 500.811 392.378C503.8 391.562 505.124 393.487 508.767 391.555C519.923 401.193 540.016 395.388 550.795 405.701C573.811 405.291 587.135 421.617 608.844 423.54C611.971 426.115 614.437 429.875 617.963 431.826C635.271 433.238 649.617 439.743 663.174 447.8C667.286 445.535 668.566 448.34 672.397 446.631C677.981 449.677 682.341 454.932 689.191 458.215C696.04 461.498 709.353 460.367 707.936 471.963Z" fill="#57AB17" fill-opacity="0.5"/>
<path fill-rule="evenodd" clip-rule="evenodd" d="M299.623 104.911C300.545 100.751 296.201 99.6977 301.707 97.6003C294.364 94.0971 293.256 101.553 283.948 102.448C279.288 103.126 277.157 99.423 273.356 98.598C252.037 103.047 239.242 98.4952 221.621 93.8439C217.471 96.4738 215.07 100.066 208.688 101.431C206.828 98.2595 210.518 98.2119 209.857 95.7072C205.612 97.5288 191.029 102.835 187.266 97.8406C184.43 98.3749 183.515 100.007 184.483 102.634C181.448 96.2063 179.579 103.001 170.181 105.201C166.743 106.003 167.065 102.955 164.078 102.811C166.222 102.923 150.29 105.501 152.317 104.684C149.518 105.814 148.495 109.019 146.965 110.191C135.628 108.509 118.882 116.154 112.46 123.644C99.5265 121.975 81.0094 130.995 69.5681 131.319C64.6032 121.796 75.06 120.964 77.5532 115.656C81.9887 114.742 87.7259 115.792 92.2038 114.364C95.3507 113.334 97.1828 109.748 100.053 108.165C111.28 101.992 126.054 103.661 133.632 96.3017C138.184 95.6163 142.819 95.7193 147.336 96.6058C154.914 84.8129 174.492 93.2831 185.406 86.2132C190.032 84.9503 192.079 88.2195 195.656 88.8084C198.816 87.4087 198.463 84.0199 202.242 82.9653C207.396 85.1008 217.231 79.2735 219.526 86.3373C230.976 86.9251 240.308 80.801 247.64 89.4492C256.669 83.4308 269.526 84.1488 273.208 93.2449C280.998 93.2323 280.557 90.8617 285.221 87.269C289.283 89.5167 293.472 91.5284 297.766 93.2942C303.374 93.6144 301.04 89.4636 304.693 88.695C308.435 92.8612 317.066 93.6705 321.623 90.8152C322.285 93.994 324.682 94.1508 325.878 96.3956C332.699 91.2426 340.184 101.631 348.48 94.259C351.682 99.3382 358.954 102.495 357.082 110.788C342.768 117.666 339.529 105.421 324.913 112.828C323.664 110.346 324.878 109.272 324.821 107.471C315.284 107.526 308.079 101.563 299.623 104.911Z" fill="#57AB17" fill-opacity="0.5"/>
<path fill-rule="evenodd" clip-rule="evenodd" d="M361.282 96.1521C373.679 96.9041 386.59 96.7735 396.778 101.317C390.068 106.04 388.065 113.397 375.991 115.081C372.812 112.521 370.778 108.083 364.13 111.566C361.568 106.404 362.532 101.901 361.282 96.1521Z" fill="#57AB17" fill-opacity="0.5"/>
<path fill-rule="evenodd" clip-rule="evenodd" d="M22.0647 231.903C27.3586 230.743 27.6176 238.306 34.8531 233.794L36.5688 240.079C34.5879 240.734 31.5648 240.793 31.8253 242.711C28.7507 242.499 29.9612 234.878 25.0429 237.832C21.6218 239.908 26.9088 241.653 26.7527 244.095C12.1031 246.815 14.9216 259.357 0.315675 262.111C-2.16973 263.178 -1.2496 266.171 -3.73209 267.249C-5.68871 268.16 -6.23726 266.653 -7.88171 267.034C-12.3791 272.283 -12.4041 280.061 -21.2926 282.829C-25.5195 278.27 -19.1537 271.619 -14.2304 268.767C-14.3377 264.648 -18.3668 267.302 -18.4741 263.183C-16.5809 261.504 -15.282 259.258 -14.7718 256.779C-10.9084 256.867 -8.46559 259.411 -3.58841 257.771C-0.0261412 255.919 -5.54291 255.425 -4.95863 252.752C-2.12565 249.693 0.334556 244.348 4.39653 242.108C6.89453 240.752 7.86292 243.756 8.89169 243.589C11.6972 243.109 14.3662 237.273 19.3871 242.061C22.4409 240.69 18.787 236.054 15.8178 238.99C14.6095 232.43 25.9269 239.522 22.0647 231.903Z" fill="#57AB17" fill-opacity="0.5"/>
<path fill-rule="evenodd" clip-rule="evenodd" d="M118.42 270.265C115.217 266.569 115.475 275.298 112.04 272.007C110.537 267.676 120.008 261.011 121.853 267.98C123.603 259.07 134.911 255.538 142.87 250.119C145.801 252.484 149.753 252.982 151.645 257.15C148.182 260.612 144.513 263.862 140.658 266.881C130.852 263.273 129.502 271.012 118.172 274.378C106.484 292.55 81.3529 303.169 64.8027 318.6C53.7142 321.889 47.944 333.486 37.7826 339.46C29.8441 344.117 19.0373 345.09 16.0696 354.814C14.089 355.47 11.0656 355.529 11.3396 357.453C7.63289 357.06 5.72745 353.638 2.01575 353.269C-2.43036 357.911 5.10584 357.431 5.09578 364.551C-1.54657 371.781 -13.482 370.126 -16.6172 379.905C-22.3752 381.249 -26.5346 379.825 -30.6711 378.36C-28.2108 365.942 -7.43431 363.858 -5.36061 351.237C18.9398 341.929 27.0576 323.488 51.3236 314.179C55.1021 307.091 64.3041 303.127 68.215 296.106C74.5207 294.958 80.3411 291.957 84.9333 287.487C88.0742 286.435 90.4272 286.682 91.9989 288.254C93.6762 280.711 100.863 276.271 109.572 272.68C110.371 274.977 111.546 276.644 113.474 277.009C116.42 275.497 117.125 272.721 118.42 270.265Z" fill="#57AB17" fill-opacity="0.5"/>
<path fill-rule="evenodd" clip-rule="evenodd" d="M319.655 238.248C322.459 235.962 324.514 233.196 328.779 231.7C332.3 230.533 332.94 234.381 335.222 235.335C338.364 230.1 345.151 232.11 348.936 235.636C361.199 233.718 380.365 229.08 382.465 238.618C391.777 228.443 403.261 238.826 415.557 234.978C418.302 235.155 417.145 242.051 420.152 241.802C426.28 241.146 420.607 236.525 422.584 235.733C426.235 233.822 436.159 235.227 438.938 240.719C440.804 234.998 452.802 233.575 455.538 241.581C474.214 237.625 488.812 240.497 502.539 248.964C496.202 252.316 489.043 253.803 481.897 253.251C480.215 253.081 478.758 250.588 477.061 250.526C475.009 250.458 472.757 252.467 470.681 252.268C456.881 250.858 443.149 242.792 430.102 248.491C428.203 245.718 422.647 249.062 422.008 243.958C411.968 247.487 407.052 241.916 394.055 246.207C391.032 242.793 384.722 245.086 382.764 239.839C381.292 242.527 378.301 244.417 373.305 245.118C368.337 243.961 366.078 244.475 358.317 245.176C350.32 245.896 340.849 242.883 333.429 243.88C330.124 244.325 326.609 246.645 323.273 246.652C316.268 246.644 309.771 243.231 303.12 242.727C288.308 250.335 265.412 242.018 258.712 254.85C244.334 254.843 229.084 260.801 216.397 259.66C198.427 275.832 171.719 270.714 156.727 290.803C153.103 292.136 152.07 289.024 148.438 290.369C143.716 294.001 135.941 300.636 127.546 298.769C126.626 300.963 127.021 302.204 129.85 302.186C122.077 308.41 113.129 320.463 101.446 318.018C98.7332 322.563 105.68 318.542 105.701 323.598C91.7249 328.911 82.9189 340.605 70.9614 341.172C67.9261 339.429 71.0981 338.701 69.2517 334.909C66.4887 336.884 67.2671 340.867 67.8364 344.71C63.1734 348.097 62.5087 353.741 54.324 355.153C43.8194 366.568 23.8505 372.613 16.3269 385.739C11.3857 386.14 11.4626 389.352 6.51076 389.755C1.89855 392.157 1.16885 387.934 -2.12488 388.092C-4.80883 389.395 -0.948827 394.409 -0.984863 397.207C-10.0411 404.97 -16.0927 407.833 -27.778 413.96C-27.9711 411.829 -29.5605 412.16 -30.0711 410.541C-26.6193 400.457 -18.4543 393.029 -4.66462 388.751C-2.15529 387.688 -3.05134 384.698 -2.2279 382.692L4.15272 380.95C16.1325 362.047 47.3557 350.095 59.7146 334.757C62.7979 333.745 65.78 332.907 67.6744 333.945C69.0496 332.243 69.2936 329.914 70.1111 327.886C83.1136 327.296 84.1053 313.976 101.364 312.612C102.052 308.769 106.434 306.989 106.926 303.016C117.206 299.443 119.88 296.051 126.294 299.077C128.174 294.747 130.395 285.387 138.096 282.371C140.59 281.417 142.106 282.912 143.511 282.241C153.684 277.396 165.276 267.787 174.079 264.458C185.593 260.173 202.866 256.429 216.88 251.425C221.452 249.801 224.909 247.349 229.227 246.719C233.894 246.027 241.148 245.933 248.945 244.021C250.94 243.545 252.879 241.691 254.982 241.024C262.473 238.66 269.255 240.146 277.233 237.646C292.499 232.909 308.435 231.472 319.655 238.248Z" fill="#57AB17" fill-opacity="0.5"/>
<path fill-rule="evenodd" clip-rule="evenodd" d="M270.248 272.014C269.128 275.279 269.289 279.258 264.346 280.367C261.739 278.097 261.213 272.24 257.802 271.378C255.191 276.079 251.695 280.23 247.508 283.603C243.272 283.617 238.396 284.594 235.985 281.367C224.182 290.874 208.102 291.664 196.175 300.337C193.671 296.769 195.28 297.519 194.117 292.797C190.128 296.56 190.676 302.877 182.223 304.146C181.449 301.933 183.051 301.063 182.119 298.781C174.796 300.46 178.169 302.647 177.448 306.786C172.139 307.721 167.247 314.416 162.562 312.198C159.549 317.442 152.741 325.448 143.982 324C138.506 330.478 127.382 333.765 127.455 343.366C125.419 343.192 121.297 346.636 120.735 343.864C117.508 346.653 118.583 351.845 117.095 355.645C111.774 356.538 109.436 359.107 111.19 363.987C106.631 366.374 104.138 369.923 99.874 372.47C94.3582 384.579 81.466 392.521 67.8725 400.071C64.238 411.873 46.4632 415.617 42.562 427.194C29.4757 429.738 25.5824 437.452 21.5266 445.072C9.97468 447.083 7.04592 453.893 3.97702 460.65C-14.5311 467.987 -24.6612 485.504 -41.0646 490.463C-41.0513 488.194 -40.4462 485.967 -39.3092 484.003C-38.1716 482.04 -36.5418 480.406 -34.5798 479.266C-32.1341 479.854 -30.621 483.68 -28.8146 480.377C-25.0239 475.469 -32.9318 475.341 -33.7511 472.298C-26.4878 471.069 -26.6738 465.658 -24.3854 461.651C-16.3401 459.226 -10.001 453.816 -3.59529 447.897C2.25348 442.449 12.6584 435.232 18.0042 427.146C21.0839 426.121 24.0634 425.274 25.9578 426.311C33.9149 415.946 45.1907 407.439 55.0753 398.149C59.5837 395.911 59.1493 402.19 62.826 401.426C65.1134 397.624 60.2943 399.603 59.8401 395.511C62.945 385.579 80.8903 384.05 82.3789 373.178C85.5312 372.168 85.6614 369.757 88.7594 371.436C94.1292 367.834 95.6175 361.314 99.6285 356.334C101.642 353.829 105.893 354.167 107.48 350.145C108.311 347.998 107.05 345.554 108.302 343.191C113.717 333.016 125.398 327.165 132.689 317.668C136.228 316.484 136.846 320.338 139.139 321.289C139.884 318.232 140.893 315.246 142.154 312.363C157.113 305.298 173.41 293.628 187.737 294.538C190.095 293.757 187.479 290.163 190.518 289.746C201.486 285.254 217.673 283.269 223.06 274.12C237.464 272.473 259.599 270.888 271.618 262.213C277.446 262.633 282.717 263.948 285.766 269.126C289.681 267.44 288.939 263.129 293.289 261.691C294.368 263.511 297.567 261.665 297.186 266.008C300.934 264.585 299.432 260.208 303.433 258.921C328.486 252.242 352.443 263.151 377.666 256.174C380.121 256.795 381.353 259.635 384.111 259.82C386.653 257.365 387.132 259.669 388.506 255.911C396.268 253.576 400.805 256.805 403.933 262.487C403.248 270.443 389.306 273.073 388.598 261.268C385.618 261.236 385.541 265.931 384.451 261.064C379.521 261.461 382.458 266.316 381.091 268.723C373.368 275.549 363.363 265.563 358.39 265.469C357.761 265.469 354.335 269.285 354.006 269.375C352.813 269.7 341.575 271.054 336.824 271.356C334.437 271.529 334.471 269.565 333.6 269.552C330.564 269.523 328.176 271.912 324.72 271.976C322.967 271.998 321.834 269.485 319.886 269.25C312.112 268.322 299.697 271.814 297.186 266.008C288.858 269.402 279.807 278.695 270.248 272.014ZM167.367 309.538C166.939 306.592 165.772 304.911 163.458 305.223C161.945 307.636 163.538 311.211 167.335 309.546L167.367 309.538Z" fill="#57AB17" fill-opacity="0.5"/>
<path fill-rule="evenodd" clip-rule="evenodd" d="M214.439 67.4983C211.319 70.1326 208.945 65.9587 207.508 72.0758C204.811 73.0405 205.709 67.7904 204.52 66.161C198.676 70.533 194.323 77.3205 184.916 74.2092C191.669 68.9379 180.989 64.0145 184.939 59.3483C189.986 60.2559 198.216 59.849 203.048 55.7417C206.614 60.1389 212.107 61.0503 214.439 67.4983Z" fill="#57AB17" fill-opacity="0.5"/>
<path fill-rule="evenodd" clip-rule="evenodd" d="M150.316 117.352C153.91 114.817 153.934 118.467 156.071 118.467C159.777 117.603 162.558 115.313 165.874 114.442C168.064 113.844 170.148 115.618 172.942 115.221C174.885 114.93 174.988 112.88 176.403 112.916C178.81 112.979 181.387 115.178 183.812 114.939C193.649 114.013 203.921 107.438 213.439 113.593C219.304 109.203 223.763 111.186 229.357 111.955C227.764 116.961 230.334 117.676 229.553 122.677C225.102 126.052 227.624 117.376 224.363 118.701C212.372 127.973 194.619 132.888 181.141 125.118C181.044 128.949 183.797 127.821 184.115 131.036C180.821 136.506 173.376 131.294 172.01 131.644C169.581 132.25 168.453 135.609 165.081 136.232C154.047 138.262 139.621 137.195 130.142 143.073C125.931 145.686 125.733 150.402 120.434 152.465C114.683 153.167 110.84 150.514 106.034 149.654C99.6664 155.209 92.464 156.787 85.3883 153.931C80.6517 157.509 70.4342 160.39 66.9497 156.29C64.6157 159.921 58.6383 161.507 52.4007 162.936C47.6811 168.292 38.6157 173.635 29.3235 173.292C27.9964 170.775 30.4888 170.403 32.4455 169.743C28.9243 157.849 42.6843 150.951 54.9766 147.424C58.2944 146.518 63.3066 147.675 67.0906 146.802C71.6489 145.752 74.6578 142.919 78.1584 142.432C79.7634 142.2 82.1596 143.945 83.9191 143.568C98.2736 140.438 114.749 129.381 127.744 134.29C129.337 132.712 128.471 129.749 128.566 127.335C137.229 120.605 149.179 128.381 150.316 117.352Z" fill="#57AB17" fill-opacity="0.5"/>
<path fill-rule="evenodd" clip-rule="evenodd" d="M387.071 160.59C384.085 158.982 380.354 165.955 376.678 167.472C369.323 167.491 364.299 162.978 356.866 164.802C355.101 165.283 353.163 167.686 350.826 167.788C346.143 167.923 342.026 164.648 337.702 164.628C330.955 164.608 323.032 170.495 315.794 169.261C314.046 167.338 311.371 167.04 311.196 162.425C308.544 164.098 303.202 164.162 302.068 168.962C291.985 165.259 282.202 172.455 273.035 167.461C267.587 167.223 270.957 171.948 267.681 172.968C264.034 174.969 264.306 170.187 260.613 172.189C258.919 168.412 263.734 168.298 261.091 163.98C249.458 179.462 232.944 164.888 218.396 182.377C215.218 181.702 212.981 179.284 209.424 179.444C205.93 181.712 204.965 185.415 199.026 186.305C195.526 184.369 193.731 179.466 190.862 176.41C188.554 176.868 188.614 178.68 186.133 179.049C183.694 181.92 185.443 187.156 183.796 190.462C177.353 192.221 171.972 200.135 166.964 193.72C158.108 199.92 150.114 204.411 138.468 204.196C133.639 207.434 127.198 223.27 119.535 214.747C115.357 215.224 120.768 221.106 115.833 221.151C111.573 218.44 114.747 213.448 115.626 210.432C112.649 211.245 112.474 213.577 108.362 213.752C111.492 222.244 106.639 226.232 103.593 231.234C100.605 232.049 99.2696 230.129 95.626 232.06C86.8433 239.486 80.0643 248.056 64.1136 251.45C60.1434 253.105 61.5058 257.761 58.2198 259.789C52.7318 262.498 50.4506 259.625 46.1166 260.408C43.4089 261.707 47.9337 267.064 45.6166 268.623L38.0132 270.698C38.9533 275.231 23.595 277.571 24.26 285.24C3.91921 292.519 -2.19645 307.83 -20.4283 316.305C-21.9734 319.686 -23.0939 323.283 -29.2138 324.096L-30.9235 317.833C-29.7669 315.666 -25.4069 314.476 -23.2989 315.752C-23.0306 310.33 -28.1887 314.332 -27.8958 308.916C-23.1646 311.053 -18.7803 299.571 -13.3527 302.25C-11.089 296.101 -5.89632 291.598 -4.45051 284.965C-1.23336 283.104 -1.20864 286.752 1.31473 286.076C5.12137 278.672 13.2431 269.244 22.3319 268.215C24.6297 267.381 21.9576 263.746 23.5032 262.501C39.2305 262.516 42.3858 245.36 56.977 245.274C71.1002 229.534 95.4394 219.53 112.985 205.736C112.428 207.029 112.342 208.476 112.741 209.825C117.319 205.33 119.126 192.862 128.448 197.459C146.926 188.587 165.125 174.683 186.715 176.159C204.695 166.68 229.363 162.152 248.302 162.043C251.542 161.353 253.392 159.968 253.997 157.792C259.149 161.425 265.062 156.086 271.187 155.796C274.817 155.616 279.45 157.814 283.968 157.701C293.717 157.461 304.035 152.223 306.32 159.677C308.432 154.393 316.757 151.572 322.475 153.93C323.82 156.808 320.903 157.296 322.919 160.54C327.129 162.818 326.301 156.188 329.509 154.707C334.54 154.008 337.946 156.106 341.364 158.201C349.001 149.26 362.052 158.141 370.411 159.71C372.971 158.623 367.657 156.862 370.306 154.345C373.254 154.306 381.515 154.508 382.993 150.882C386.223 150.16 386.674 154.448 387.579 157.72C392.176 157.482 387.802 152.174 392.931 152.214C395.57 158.11 404.344 153.418 408.017 157.534C432.619 152.555 444.825 169.014 466.888 168.419C468.098 173.357 463.118 174.785 461.326 178.016C458.349 177.035 456.706 178.717 453.03 177.595C451.214 177.052 448.536 173.188 446.245 172.706C438.489 171.087 429.602 174.53 422.034 173.933C416.192 173.46 410.101 171.112 406.607 167.358C402.488 167.5 403.455 170.503 399.336 170.691C397.055 165.394 385.016 167.252 387.071 160.59ZM156.619 195.173C156.076 191.802 154.68 189.909 151.442 191.193C151.889 194.591 153.339 196.469 156.619 195.173ZM117.385 211.266L119.916 210.575L119.231 208.065L116.7 208.756L117.385 211.266ZM338.319 161.74C336.29 162.18 336.459 158.82 333.826 160.27C334.433 161.693 334.589 163.901 336.12 163.689C335.776 161.258 338.399 163.832 338.319 161.74ZM49.0129 255.572C45.8337 254.097 46.7798 257.186 43.5872 255.705C42.4919 259.729 49.9936 257.657 48.9967 255.554L49.0129 255.572Z" fill="#57AB17" fill-opacity="0.5"/>
<path fill-rule="evenodd" clip-rule="evenodd" d="M334.485 127.729C337.377 126.517 335.655 122.725 339.838 122.223C339.866 126.512 342.897 125.559 344.081 127.806C358.057 122.711 369.006 122.865 376.933 128.265C382.433 124.261 384.949 126.82 389.381 128.912C390.156 127.558 392.656 127.218 392.504 125.363C399.054 129.014 409.127 131.509 417.389 126.648C421.522 128.525 427.965 134.045 423.703 139.78C415.231 138.504 407.456 139.37 401.784 144.415C400.648 143.579 399.838 142.374 399.493 141.006C390.158 148.286 381.541 133.258 372.066 140.404C372.055 136.727 368.843 138.564 368.157 136.089C364.279 137.079 363.942 140.073 361.574 141.908C357.069 144.155 357.493 137.88 353.827 138.641C345.817 144.838 341.02 136.812 334.002 135.963C328.961 135.248 334.407 140.423 331.233 140.764C321.932 140.514 320.028 137.389 309.561 141.286C306.947 136.984 311.124 136.506 311.648 133.986C310.968 132.71 308.893 133.813 308.429 132.157C305.309 138.722 295.86 138.685 287.208 139.31C275.127 140.174 268.753 149.558 260.808 142.471C258.276 143.163 260.125 146.337 256.407 146.358C256.483 141.321 252.634 143.046 250.889 141.134C247.46 144.767 237.661 146.299 234.987 142.778C232.699 144.317 233.127 147.389 231.274 149.186C224.796 146.383 221.281 152.85 213.857 155.289C212.691 149.299 204.587 155.317 201.066 153.387C197.825 151.518 200.956 150.766 200.972 148.019C198.551 149.823 192.802 149.655 188.628 152.737C189.081 155.025 190.9 154.951 191.263 157.411C176.946 164.988 159.09 165.383 149.491 174.208C147.198 173.257 145.395 171.43 142.079 172.175C136.791 173.436 135.597 177.018 133.315 179.961C116.524 182.328 111.422 189.297 96.9572 196.628C95.873 206.637 81.7407 209.283 75.0124 216.113C71.192 217.773 70.5684 213.899 68.5667 212.468C66.5949 214.789 72.6039 215.788 70.6221 219.997C59.0264 225.448 50.1183 229.777 36.7952 235.973C36.3784 231.265 37.2939 227.838 30.6038 228.236C32.7295 224.811 34.4774 221.165 35.8171 217.363C45.9844 214.256 50.7899 212.773 56.4604 213.076C67.1985 203.563 78.6464 194.976 92.3845 189.797C103.302 172.945 125.733 161.268 147.47 151.906C150.562 152.102 154.545 150.74 156.112 153.592C160.793 153.034 158.022 148.283 162.698 147.749C172.33 151.302 182.848 139.769 191.984 145.148C199.293 139.485 204.174 142.963 212.862 136.74C216.04 134.947 216.029 138.675 217.696 139.466C221.858 139.347 219.192 135.355 223.396 135.225C232.45 138.466 241.804 129.914 249.212 134.908C254.396 131.458 258.567 131.211 262.594 133.951C276.336 130.542 294.885 121.971 308.602 122.74C308.628 123.051 308.544 123.361 308.365 123.617C308.186 123.872 307.924 124.057 307.623 124.139C307.323 124.221 307.003 124.195 306.719 124.066C306.434 123.937 306.205 123.712 306.069 123.431C309.965 134.057 327.085 117.866 334.485 127.729ZM45.3068 226.885C44.8539 225.226 47.2158 225.13 47.1662 223.692C45.7964 224.09 44.332 224.011 43.0135 223.466C43.6191 224.889 43.7202 227.101 45.3068 226.885Z" fill="#57AB17" fill-opacity="0.5"/>
<path fill-rule="evenodd" clip-rule="evenodd" d="M32.6897 305.796C32.4324 317.076 12.1247 325.522 0.0135778 330.885C-3.77839 341.565 -19.7779 350.766 -32.0929 353.121C-33.3941 337.89 -9.83951 336.649 -9.07557 322.579C-6.57252 321.325 -5.483 322.512 -3.66048 322.449C3.43496 313.656 15.268 302.085 26.8292 299.271C27.9644 288.402 43.1248 291.657 44.9698 280.835C57.8881 275.96 71.722 270.378 77.0656 258.601C87.8072 256.091 90.0871 247.7 99.5654 251.111C100.815 245.056 102.658 245.696 109.271 241.709C113.108 239.438 115.414 234.661 118.982 232.327C122.3 230.164 125.729 231.091 129.127 229.558C130.216 229.066 132.587 223.563 138.59 224.289C139.165 217.688 148.148 218.32 154.054 216.011C161.354 213.161 165.671 208.338 172.062 207.05C175.835 206.306 179.994 208.53 184.51 207.697C198.431 205.154 209.472 192.484 226.626 192.155C230.44 190.474 230.901 194.633 234.033 194.178C244.349 190.607 258.676 183.485 268.031 188.953C275.102 188.737 281.224 184.837 287.065 183.757C296.641 181.955 305.003 183.957 312.883 183.439C316.723 183.191 320.64 180.545 324.293 180.324C329.784 179.969 334.803 182.026 339.967 182.777C344.829 182.341 344.1 178.746 348.163 177.853C352.677 174.839 352.398 181.599 356.257 182.385C357.794 182.698 362.804 179.581 366.402 179.616C373.584 179.679 378.719 182.207 382.17 187.435C390.891 177.821 399.63 184.68 410.873 187.69C429.699 179.124 437.487 189.703 452.958 186.976C457.603 187.582 459.014 193.757 466.084 190.147C469.065 194.83 473.898 196.333 480.837 194.21C483.844 195.766 485.534 199.613 488.295 201.601C493.838 202.237 487.26 196.055 490.742 195.539C504.943 198.839 519.892 200.231 531.842 211.275C521.992 209.85 508.651 214.43 503.046 205.664C500.412 206.418 497.645 206.587 494.937 206.162C492.231 205.738 489.648 204.727 487.371 203.201C480.46 210.995 468.102 205.743 462.141 200.65C447.648 202.939 435.307 201.474 425.401 195.825L417.776 197.907C409.943 186.333 391.909 205.162 383.222 191.171C380.121 192.936 376.62 193.88 373.051 193.913C369.482 193.944 365.964 193.065 362.83 191.356C358.792 195.521 349.264 195.779 346.572 191.737C331.714 199.347 315.864 193.562 298.502 195.433C296.71 190.415 300.965 194.029 303.229 192.782C302.079 185.635 293.761 194.053 292.734 194.311C291.469 194.656 288.955 192.771 288.251 192.826C277.247 193.921 257.733 207.031 246.955 201.414C247.763 199.388 249.72 198.02 249.403 195.353C245.387 196.632 244.599 199.727 246.373 204.258C236.468 207.865 228.34 208.358 222.174 205.483C214.465 210.73 203.925 208.956 193.325 214.706C195.618 210.549 190.012 209.6 186.54 209.817C186.505 216.511 180 219.601 173.719 222.755C169.674 224.213 169.699 218.619 165.969 219.477C160.129 229.437 142.911 237.564 128.937 233.631C125.794 235.724 132.954 235.037 131.912 239.549C131.128 240.103 130.473 240.82 129.994 241.651C129.515 242.483 129.222 243.408 129.136 244.364C112.047 247.818 104.75 256.791 96.6974 265.343C95.6681 265.873 94.5423 266.189 93.3881 266.276C92.2335 266.361 91.0737 266.214 89.9774 265.841C87.4123 277.122 64.6476 277.03 63.6393 289.2C53.4417 295.125 44.8011 301.941 34.6578 307.899C34.1249 306.993 33.0292 307.039 32.6897 305.796ZM84.1885 264.769C85.5545 264.343 87.0266 264.407 88.3508 264.947C88.8623 263.974 89.6922 258.183 86.6353 258.663C86.9745 261.37 83.8856 262.111 84.1885 264.769ZM-6.33505 332.618L-3.75093 331.912C-4.12527 330.29 -2.59694 329.735 -3.51315 327.802L-7.3202 328.841L-6.33505 332.618Z" fill="#57AB17" fill-opacity="0.5"/>
<path fill-rule="evenodd" clip-rule="evenodd" d="M202.228 317.531C196.012 319.879 204.187 322.115 204.28 325.049C189.159 324.538 173.715 337.655 157.102 341.973C152.678 347.157 142 357.603 133.682 351.074C138.296 340.935 150.325 334.979 164.849 330.42C170.48 323.169 185.262 314.826 198.088 317.313C200.94 310.556 209.163 311.043 212.861 306.548C214.936 303.388 216.548 308 218.613 307.652C220.804 307.305 219.782 305.116 223.017 303.776C225.169 302.869 228.128 303.957 229.737 303.279C232.225 302.222 233.517 299.63 235.43 299.016C243.056 296.603 251.864 297.021 260.215 294.959C265.287 293.7 268.8 290.329 273.827 289.905C275.767 289.731 278.933 291.071 280.887 290.653C289.854 288.799 294.657 284.037 302.453 284.765C305.081 285.018 305.993 287.227 308.567 287.153C310.403 287.097 313.278 285.409 316.171 285.077C321.161 284.48 324.175 287.108 328.858 281.614C334.089 281.191 337.094 284.622 341.989 284.759C351.593 280.011 364.607 278.333 371.616 283.414C383.753 278.352 402.347 276.692 411.151 283.408C413.416 282.206 413.604 279.836 416.847 279.156C432.851 280.397 446.607 285.578 464.433 283.694C473.618 288.043 487.666 292.206 499.238 286.328C520.514 290.804 539.815 298.642 566.643 293.522C567.577 302.935 574.576 293.037 577.34 302.738C573.639 308.228 569.227 303.078 566.142 301.739C556.665 308.04 550.592 301.413 542.535 300.104C523.349 307.765 501.74 304.328 487.341 297.666C468.707 299.69 454.741 293.653 438.135 292.221C437.307 288.767 435.318 290.271 436.765 287.201C428.141 287.168 415.816 293.424 414.395 285.207C409.298 285.159 411.644 289.318 407.48 289.802C405.197 283.57 393.79 289.462 385.81 290.326C381.813 290.754 378.463 287.692 374.046 292.189C370.231 293.869 369.775 289.732 366.638 290.166C362.828 290.863 363.51 294.071 359.708 294.755C349.283 290.55 327.392 300.148 314.747 294.893C309.097 297.006 304.519 299.741 297.334 301.005C294.99 294.47 290.137 303.691 288.896 295.208C284.27 296.471 284.182 300.334 281.396 302.649C260.926 305.688 240.355 307.727 223.026 318.583C221.693 314.124 214.461 319.858 211.852 317.588C207.171 318.147 209.939 322.888 205.266 323.432C201.735 322.806 206.515 318.004 202.228 317.531Z" fill="#57AB17" fill-opacity="0.5"/>
</svg>
