<svg width="42" height="42" viewBox="0 0 42 42" fill="none" xmlns="http://www.w3.org/2000/svg">
<path d="M26.25 12.9676C26.25 7.75262 22.6275 5.75762 18.2175 8.52262L13.1075 11.7251C12.5475 12.0576 11.9 12.2501 11.2525 12.2501H8.75C5.25 12.2501 3.5 14.0001 3.5 17.5001V24.5001C3.5 28.0001 5.25 29.7501 8.75 29.7501H11.2525C11.9 29.7501 12.5475 29.9426 13.1075 30.2751L18.2175 33.4776C22.6275 36.2426 26.25 34.2301 26.25 29.0326V20.0726" stroke="#EDFFDF" stroke-width="1.5" stroke-linecap="round" stroke-linejoin="round"/>
<path d="M31.5 14C34.615 18.1475 34.615 23.8525 31.5 28" stroke="#5EAF21" stroke-width="1.5" stroke-linecap="round" stroke-linejoin="round"/>
<path d="M34.7026 32.375C37.2401 28.9975 38.5001 25.0075 38.5001 21" stroke="#EDFFDF" stroke-width="1.5" stroke-linecap="round" stroke-linejoin="round"/>
<path d="M34.7026 9.625C35.7351 10.99 36.5401 12.46 37.1526 14" stroke="#5EAF21" stroke-width="1.5" stroke-linecap="round" stroke-linejoin="round"/>
</svg>
