<svg width="42" height="42" viewBox="0 0 42 42" fill="none" xmlns="http://www.w3.org/2000/svg">
<path d="M39.4813 24.4471V28.0521C39.4813 29.0146 38.7113 29.8021 37.7313 29.8371H34.3013C32.4113 29.8371 30.6788 28.4546 30.5213 26.5646C30.4163 25.4621 30.8363 24.4296 31.5713 23.7121C32.2188 23.0471 33.1113 22.6621 34.0913 22.6621H37.7313C38.7113 22.6971 39.4813 23.4846 39.4813 24.4471Z" stroke="#5EAF21" stroke-width="1.5" stroke-linecap="round" stroke-linejoin="round"/>
<path d="M12.25 21H24.5" stroke="#292D32" stroke-width="1.5" stroke-linecap="round" stroke-linejoin="round"/>
<path d="M21.4888 3.79779C23.6588 2.97529 25.9863 4.58534 25.9863 6.91284V13.5628" stroke="#292D32" stroke-width="1.5" stroke-linecap="round" stroke-linejoin="round"/>
<path d="M4.375 21.7168V13.7195C4.375 11.637 5.6525 9.78187 7.595 9.04688L14.5425 6.42188" stroke="#292D32" stroke-width="1.5" stroke-linecap="round" stroke-linejoin="round"/>
<path d="M24.5 38.5H13.3525C13.895 38.045 14.3675 37.485 14.735 36.855C15.3825 35.805 15.75 34.5625 15.75 33.25C15.75 29.3825 12.6175 26.25 8.75 26.25C7.105 26.25 5.5825 26.8275 4.375 27.79V20.1425C4.375 16.52 7.33248 13.5625 10.955 13.5625H31.045C34.6675 13.5625 37.625 16.52 37.625 20.1425V22.6625H34.09C33.11 22.6625 32.2175 23.0475 31.57 23.7125C30.835 24.43 30.415 25.4625 30.52 26.565C30.6775 28.455 32.41 29.8375 34.3 29.8375H37.625V31.92C37.625 35.5425 34.6675 38.5 31.045 38.5" stroke="#5EAF21" stroke-width="1.5" stroke-linecap="round" stroke-linejoin="round"/>
<circle cx="9" cy="33" r="7.875" fill="white" stroke="black" stroke-width="1.75"/>
<path d="M6.01904 33.2502L7.75153 34.9827L11.479 31.5352" stroke="#292D32" stroke-width="1.5" stroke-linecap="round" stroke-linejoin="round"/>
</svg>
